<?xml version="1.0" standalone="no"?>
<!DOCTYPE svg PUBLIC "-//W3C//DTD SVG 20010904//EN"
 "http://www.w3.org/TR/2001/REC-SVG-20010904/DTD/svg10.dtd">
<svg version="1.0" xmlns="http://www.w3.org/2000/svg"
 width="584.000000pt" height="584.000000pt" viewBox="0 0 584.000000 584.000000"
 preserveAspectRatio="xMidYMid meet">
<metadata>
Created by potrace 1.11, written by Peter Selinger 2001-2013
</metadata>
<g transform="translate(0.000000,584.000000) scale(0.100000,-0.100000)"
fill="#000000" stroke="none">
<path d="M4276 5658 c-24 -71 -94 -139 -161 -158 l-49 -14 33 -9 c79 -20 141
-78 175 -161 l23 -57 6 39 c4 21 20 57 37 80 32 45 120 101 160 103 20 0 16 3
-15 13 -100 31 -165 96 -183 181 l-7 36 -19 -53z"/>
<path d="M2823 5433 c-4 -10 -183 -374 -399 -809 -422 -853 -389 -796 -475
-808 -19 -3 -70 -10 -114 -16 -44 -6 -91 -13 -105 -16 -14 -2 -72 -11 -130
-19 -58 -8 -121 -18 -140 -20 -19 -3 -62 -10 -95 -15 -33 -5 -80 -12 -105 -15
-25 -3 -56 -8 -70 -10 -44 -8 -85 -15 -125 -20 -50 -6 -101 -13 -220 -31 -55
-9 -111 -17 -125 -19 -14 -2 -70 -11 -125 -19 -55 -8 -120 -18 -145 -21 -25
-3 -85 -12 -135 -20 -49 -8 -111 -17 -137 -20 -25 -4 -67 -9 -93 -13 l-46 -7
138 -137 c76 -75 195 -192 264 -260 144 -140 816 -798 951 -931 49 -48 87 -91
84 -95 -5 -8 -9 -34 -32 -176 -3 -21 -8 -48 -10 -60 -2 -11 -13 -77 -25 -146
-11 -69 -22 -136 -25 -150 -10 -62 -45 -267 -49 -290 -3 -21 -19 -112 -39
-230 -3 -14 -14 -82 -26 -152 -11 -69 -23 -137 -25 -150 -14 -67 -25 -138 -30
-178 -3 -25 -8 -52 -10 -60 -2 -8 -6 -28 -9 -45 -12 -76 -47 -283 -52 -309
l-6 -28 128 67 c156 82 298 156 442 231 59 31 152 80 207 109 55 29 152 79
215 112 129 67 330 173 525 275 72 38 162 85 201 105 l71 36 119 -63 c298
-156 496 -260 649 -340 66 -34 165 -86 220 -115 55 -29 154 -81 220 -115 66
-35 156 -82 200 -105 190 -101 375 -195 375 -192 0 2 -4 28 -10 58 -5 30 -12
68 -14 84 -3 17 -8 41 -10 55 -3 14 -8 41 -10 60 -3 19 -8 45 -10 56 -2 12 -7
37 -10 55 -3 19 -33 196 -66 394 -33 198 -63 371 -65 385 -3 20 -42 248 -70
410 -2 14 -7 43 -10 65 -3 22 -10 63 -16 90 -9 50 -13 73 -25 150 -3 22 -10
58 -14 80 l-9 40 92 89 c51 49 200 195 333 325 132 130 404 396 604 591 199
195 373 366 387 380 l23 25 -47 7 c-27 4 -66 10 -88 13 -22 3 -51 7 -65 9 -14
3 -61 10 -105 16 -44 6 -91 13 -104 15 -13 2 -45 7 -70 11 -25 3 -57 8 -71 10
-23 4 -109 16 -205 30 -57 8 -287 42 -321 48 -16 3 -65 10 -109 16 -44 6 -91
12 -105 15 -14 2 -75 11 -136 20 -60 8 -121 17 -135 20 -13 2 -74 11 -135 20
-60 8 -121 17 -135 20 -141 22 -169 28 -169 35 0 9 -768 1560 -772 1560 -2 0
-3 -473 -3 -1051 l0 -1050 35 -19 c19 -10 53 -26 75 -35 101 -42 136 -66 220
-150 78 -78 140 -161 160 -215 5 -13 -65 -15 -586 -17 -325 -2 -595 0 -600 3
-9 5 23 75 60 128 34 51 154 166 213 206 32 21 88 48 124 60 117 39 104 -95
104 1125 -1 586 -3 1065 -6 1065 -3 0 -8 -8 -11 -17z m732 -2644 c3 -4 10 -44
21 -120 l5 -36 -73 -21 c-92 -26 -208 -49 -318 -61 -81 -9 -401 -7 -465 3 -16
3 -55 8 -85 11 -30 4 -122 19 -205 33 l-150 27 0 36 c-1 67 18 123 43 129 25
5 1221 5 1227 -1z m67 -267 c8 -15 67 -100 130 -189 64 -89 127 -176 140 -194
12 -19 28 -39 34 -46 25 -26 204 -300 204 -310 0 -41 -205 -144 -402 -202
-207 -61 -195 -62 -222 15 l-14 39 -7 -39 c-4 -22 -8 -48 -9 -59 -1 -28 -40
-40 -58 -19 -33 39 -50 77 -67 145 l-18 72 -18 -95 c-10 -52 -19 -110 -19
-127 -1 -28 -5 -33 -26 -34 -14 0 -34 -3 -45 -5 -34 -8 -326 -8 -395 0 -95 10
-130 15 -180 26 -25 5 -56 12 -70 14 -14 2 -52 11 -85 19 -33 8 -76 18 -96 21
-60 11 -83 41 -81 111 1 31 14 178 17 196 4 18 7 96 6 119 -1 12 -183 -283
-194 -315 -5 -13 -100 30 -178 80 -73 47 -93 63 -152 117 l-40 36 58 84 c65
92 302 410 374 501 l46 58 55 -5 c30 -3 93 -14 140 -25 157 -37 245 -46 450
-46 152 0 254 7 290 19 8 3 38 7 65 11 28 3 111 16 185 29 174 31 166 31 182
-2z"/>
<path d="M3105 2287 c-6 -12 -20 -26 -32 -32 -29 -12 -29 -18 -1 -30 13 -6 28
-21 34 -34 l12 -23 7 22 c4 11 18 26 31 32 26 12 32 28 12 28 -7 0 -22 13 -33
30 -21 29 -21 29 -30 7z"/>
<path d="M3446 2142 c-4 -12 -18 -28 -31 -35 l-24 -12 34 -32 33 -32 18 25
c11 13 26 24 34 24 10 0 6 7 -11 23 -15 12 -31 31 -37 41 -9 19 -10 18 -16 -2z"/>
<path d="M5257 5211 c-22 -62 -96 -131 -164 -154 -30 -10 -39 -16 -25 -16 82
-3 201 -122 202 -205 1 -11 9 3 19 32 17 48 42 86 81 119 26 23 88 53 112 54
18 1 16 4 -12 13 -87 29 -155 93 -179 169 -7 20 -13 37 -14 37 -1 0 -10 -22
-20 -49z"/>
<path d="M4511 5006 c-38 -153 -175 -284 -326 -312 l-40 -7 55 -12 c151 -31
276 -156 315 -317 8 -33 13 -43 14 -27 1 37 31 118 58 161 58 93 173 171 270
185 l47 6 -60 17 c-158 44 -269 154 -308 305 l-12 50 -13 -49z"/>
</g>
</svg>
